<?xml version="1.0" encoding="utf-8"?>
<!-- Generator: Adobe Illustrator 24.0.1, SVG Export Plug-In . SVG Version: 6.00 Build 0)  -->
<svg version="1.1" id="Ebene_1" xmlns="http://www.w3.org/2000/svg" xmlns:xlink="http://www.w3.org/1999/xlink" x="0px" y="0px"
	 viewBox="0 0 520 170" style="enable-background:new 0 0 520 170;" xml:space="preserve">
<style type="text/css">
	.st0{fill:#2869AF;}
</style>
<g>
	<path class="st0" d="M421.8,57l-37.5-21.8l36.1-20.6c0.5-0.3,0.8-0.9,0.8-1.4V2.3c0-0.6-0.5-0.8-1-0.5l-45.6,26.7V3
		c0-0.5-0.4-1-1-1h-9.6c-0.5,0-1,0.4-1,1v65.6c0,0.5,0.4,0.9,1,0.9h9.6c0.5,0,1-0.4,1-0.9V42l46.9,27.9c0.5,0.3,1.1,0.1,1.1-0.5
		l0-10.8C422.6,57.8,422.3,57.3,421.8,57"/>
	<path class="st0" d="M463.8,38.5L475.6,15l11.6,23.6H463.8z M516,68.6L482.8,2.9c-0.2-0.5-0.7-0.9-1.3-0.9h-10.8
		c-0.6,0-1.1,0.4-1.4,0.8l-34.1,65.6c-0.2,0.5,0,1.1,0.7,1.1h11.5c0.5,0,1.1-0.4,1.4-0.8l10-19.7h33.5l9.9,19.7
		c0.2,0.5,0.9,0.8,1.4,0.8h11.9C515.9,69.6,516.2,69,516,68.6"/>
	<path class="st0" d="M328.9,3c0-0.5,0.4-1,1-1h9.6c0.5,0,1,0.4,1,1v65.6c0,0.5-0.4,0.9-1,0.9h-9.6c-0.5,0-1-0.4-1-0.9V3z
		 M322.5,30.6h-28.7V3c0-0.5-0.4-1-1-1h-9.6c-0.5,0-1,0.4-1,1v27.6h-28.7c-0.5,0-0.9,0.4-0.9,1v8.5c0,0.5,0.4,1,0.9,1h28.7v27.6
		c0,0.5,0.4,0.9,1,0.9h9.6c0.5,0,1-0.4,1-0.9V41h28.7c0.5,0,1-0.4,1-1v-8.5C323.4,31.1,323,30.6,322.5,30.6"/>
</g>
<g>
	<g>
		<path class="st0" d="M3.3,17.9V2.7c0-0.3,0.2-0.5,0.5-0.5h2.4c0.3,0,0.5,0.2,0.5,0.5v5.8c0,0.1,0.1,0.2,0.2,0.2h3.6
			c0.1,0,0.2-0.1,0.2-0.2V2.7c0-0.3,0.2-0.5,0.5-0.5h2.4c0.3,0,0.5,0.2,0.5,0.5v15.2c0,0.3-0.2,0.5-0.5,0.5h-2.4
			c-0.3,0-0.5-0.2-0.5-0.5v-5.7c0-0.1-0.1-0.2-0.2-0.2H6.9c-0.1,0-0.2,0.1-0.2,0.2v5.7c0,0.3-0.3,0.5-0.6,0.5H3.8
			C3.5,18.4,3.3,18.2,3.3,17.9z"/>
		<path class="st0" d="M18,16.8c-0.8-1-1-2.2-1-4.2s0.3-3.2,1-4.2c0.8-1.1,2.3-1.8,4-1.8c1.7,0,3.2,0.7,4,1.8c0.8,1,1,2.2,1,4.2
			c0,2-0.3,3.2-1,4.2c-0.8,1.1-2.3,1.8-4,1.8C20.4,18.6,18.9,17.9,18,16.8z M23.6,15.1c0.3-0.4,0.4-1,0.4-2.5s-0.1-2.1-0.4-2.5
			c-0.3-0.4-0.7-0.6-1.5-0.6c-0.7,0-1.2,0.2-1.5,0.6c-0.3,0.4-0.4,1-0.4,2.5s0.1,2.1,0.4,2.5c0.3,0.4,0.8,0.6,1.5,0.6
			C22.8,15.6,23.2,15.5,23.6,15.1z"/>
		<path class="st0" d="M30.4,16.8c-0.8-1-1-2.2-1-4.2c0-2,0.3-3.2,1-4.2c0.8-1.1,2.3-1.8,4-1.8c1.5,0,2.6,0.3,3.5,1
			c0.9,0.8,1.5,2.1,1.5,3.5c0,0.3-0.2,0.5-0.4,0.5h-2.2c-0.3,0-0.4-0.1-0.5-0.4c-0.1-0.6-0.2-1-0.5-1.2c-0.3-0.3-0.7-0.4-1.3-0.4
			c-0.7,0-1.2,0.2-1.5,0.6c-0.3,0.4-0.4,1-0.4,2.5s0.1,2.1,0.4,2.5c0.3,0.4,0.8,0.6,1.5,0.6c0.7,0,1-0.1,1.3-0.3
			c0.3-0.2,0.4-0.5,0.5-1.4c0-0.2,0.2-0.3,0.5-0.3h2.2c0.2,0,0.4,0.2,0.4,0.5c0,1.3-0.4,2.4-1.1,3.2c-0.8,0.9-2.2,1.3-3.8,1.3
			C32.7,18.6,31.2,17.9,30.4,16.8z"/>
		<path class="st0" d="M41.8,17.9V2.5C41.8,2.2,42,2,42.3,2h2.2c0.3,0,0.5,0.2,0.5,0.5v4.1c0,0.3,0.2,0.5,0.5,0.5
			c0.2,0,0.9-0.5,2.1-0.5c2.6,0,4.2,1.6,4.2,4.3v7c0,0.3-0.2,0.5-0.5,0.5H49c-0.3,0-0.5-0.2-0.5-0.5v-6.8c0-1-0.7-1.6-1.8-1.6
			c-1.1,0-1.8,0.6-1.8,1.5v6.9c0,0.3-0.2,0.5-0.5,0.5h-2.2C42,18.4,41.8,18.2,41.8,17.9z"/>
		<path class="st0" d="M53.7,14.5c0-0.3,0.2-0.4,0.5-0.4h2.1c0.3,0,0.5,0.2,0.5,0.4c0,1,0.6,1.5,1.9,1.5c1.2,0,1.8-0.3,1.8-1
			c0-0.6-0.5-0.9-2.4-1.3c-2.6-0.6-3.8-1.8-3.8-3.8c0-2,1.8-3.3,4.5-3.3c2.8,0,4.5,1.4,4.5,3.6c0,0.3-0.2,0.4-0.5,0.4h-1.9
			c-0.3,0-0.5-0.2-0.5-0.4c0-0.7-0.6-1.1-1.6-1.1c-0.9,0-1.4,0.4-1.4,0.9c0,0.6,0.4,0.8,2.4,1.3c2.9,0.7,3.8,1.6,3.8,3.6
			c0,2.3-1.8,3.7-4.9,3.7C55.6,18.6,53.7,17.1,53.7,14.5z"/>
		<path class="st0" d="M66.5,16.8c-0.8-1-1.1-2.2-1.1-4.2c0-2,0.3-3.2,1.1-4.2c0.8-1.1,2.3-1.8,4-1.8c1.5,0,2.6,0.3,3.4,1
			c0.9,0.8,1.5,2.1,1.5,3.5c0,0.3-0.2,0.5-0.4,0.5h-2.2c-0.3,0-0.4-0.1-0.4-0.4c-0.1-0.6-0.2-1-0.5-1.2c-0.3-0.3-0.7-0.4-1.3-0.4
			c-0.7,0-1.2,0.2-1.5,0.6c-0.3,0.4-0.4,1-0.4,2.5s0.1,2.1,0.4,2.5c0.3,0.4,0.8,0.6,1.5,0.6c0.7,0,1.1-0.1,1.3-0.3
			c0.3-0.2,0.4-0.5,0.5-1.4c0-0.2,0.2-0.3,0.4-0.3H75c0.2,0,0.4,0.2,0.4,0.5c0,1.3-0.4,2.4-1.1,3.2c-0.8,0.9-2.2,1.3-3.8,1.3
			C68.9,18.6,67.4,17.9,66.5,16.8z"/>
		<path class="st0" d="M77.9,17.9V2.5c0-0.3,0.2-0.5,0.5-0.5h2.2C80.8,2,81,2.2,81,2.5v4.1c0,0.3,0.2,0.5,0.4,0.5
			c0.2,0,0.9-0.5,2.1-0.5c2.6,0,4.2,1.6,4.2,4.3v7c0,0.3-0.2,0.5-0.5,0.5h-2.2c-0.3,0-0.5-0.2-0.5-0.5v-6.8c0-1-0.7-1.6-1.8-1.6
			c-1.1,0-1.8,0.6-1.8,1.5v6.9c0,0.3-0.2,0.5-0.5,0.5h-2.2C78.1,18.4,77.9,18.2,77.9,17.9z"/>
		<path class="st0" d="M100.4,7.3v10.6c0,0.3-0.2,0.5-0.5,0.5h-1.2c-0.2,0-0.3,0-0.4-0.2c-0.2-0.3-0.3-0.6-0.7-0.6c-0.6,0-1,1-2.9,1
			c-2.6,0-4.2-1.6-4.2-4.2v-7c0-0.3,0.2-0.5,0.5-0.5h2.2c0.3,0,0.5,0.2,0.5,0.5v6.8c0,1,0.7,1.6,1.8,1.6s1.8-0.6,1.8-1.5V7.3
			c0-0.3,0.2-0.5,0.5-0.5h2.2C100.2,6.9,100.4,7.1,100.4,7.3z"/>
		<path class="st0" d="M103.5,17.9V2.5c0-0.3,0.2-0.5,0.5-0.5h2.2c0.3,0,0.5,0.2,0.5,0.5v15.4c0,0.3-0.2,0.5-0.5,0.5H104
			C103.7,18.4,103.5,18.2,103.5,17.9z"/>
		<path class="st0" d="M110.4,16.8c-0.8-1-1.1-2.2-1.1-4.2c0-2,0.3-3.2,1.1-4.2c0.8-1.1,2.3-1.8,4-1.8c3.1,0,4.9,2,4.9,5.4v1
			c0,0.3-0.2,0.5-0.5,0.5h-6.2c-0.1,0-0.2,0.1-0.2,0.2c0,1.5,0.6,2.2,2,2.2c1,0,1.6-0.3,1.8-1.1c0.1-0.3,0.3-0.4,0.6-0.4h2
			c0.3,0,0.5,0.2,0.4,0.5c-0.6,2.3-2.4,3.6-4.8,3.6C112.7,18.6,111.2,17.9,110.4,16.8z M116.2,11.2c0.1,0,0.2-0.1,0.2-0.2
			c0-1.1-0.9-2-2-2c-1.3,0-2.1,0.8-2.1,2c0,0.1,0.1,0.2,0.2,0.2C112.5,11.2,116.2,11.2,116.2,11.2z"/>
		<path class="st0" d="M127.1,17.9V2.7c0-0.3,0.2-0.5,0.5-0.5h2.4c0.3,0,0.5,0.2,0.5,0.5v5.6c0,0.1,0.1,0.1,0.1,0.1
			c0.1,0,0.1-0.1,0.2-0.1l4-5.9c0.1-0.1,0.2-0.2,0.5-0.2h2.6c0.3,0,0.5,0.2,0.5,0.5c0,0.1,0,0.2-0.1,0.3l-4.8,6.6
			c-0.1,0.1-0.1,0.3-0.1,0.4c0,0.1,0.1,0.3,0.1,0.4l4.9,7c0.1,0.1,0.1,0.3,0.1,0.4c0,0.3-0.2,0.5-0.6,0.5h-2.6
			c-0.4,0-0.5-0.2-0.6-0.4l-3.9-6.2c-0.1-0.1-0.1-0.2-0.2-0.2s-0.1,0.1-0.1,0.1v6.1c0,0.3-0.2,0.5-0.5,0.5h-2.4
			C127.3,18.4,127.1,18.2,127.1,17.9z"/>
		<path class="st0" d="M139.3,14.8c0-1.8,1.4-3.6,4.1-3.6h2.4c0.1,0,0.2-0.1,0.2-0.2v-0.4c0-0.9-0.8-1.4-1.8-1.4
			c-0.5,0-1.5,0.1-1.6,0.8c-0.1,0.4-0.2,0.4-0.6,0.4h-1.7c-0.3,0-0.5-0.2-0.5-0.5c0-1.8,1.8-3.4,4.6-3.4c2.9,0,4.8,1.5,4.8,4.2v7.1
			c0,0.3-0.2,0.5-0.5,0.5h-1.2c-0.1,0-0.3,0-0.3-0.2c-0.1-0.2-0.3-0.5-0.6-0.5c-0.4,0-1.1,0.9-3.1,0.9
			C141,18.6,139.3,17.2,139.3,14.8z M146.2,14.5v-0.6c0-0.1-0.1-0.2-0.2-0.2h-2.2c-1,0-1.4,0.5-1.4,1.1c0,0.9,0.7,1.2,1.6,1.2
			C145.1,16,146.2,15.7,146.2,14.5z"/>
		<path class="st0" d="M152.1,17.9V7.3c0-0.3,0.2-0.5,0.5-0.5h1.2c0.2,0,0.4,0.1,0.5,0.3c0.1,0.4,0.2,1,0.6,1c0.7,0,1.1-1.3,3.4-1.3
			h0.8c0.3,0,0.5,0.2,0.5,0.5v2.2c0,0.3-0.2,0.5-0.5,0.5h-0.8c-1.8,0-3.1,0.8-3.1,2.6v5.4c0,0.3-0.2,0.5-0.5,0.5h-2.1
			C152.3,18.4,152.1,18.2,152.1,17.9z"/>
		<path class="st0" d="M161.6,17.9V2.5c0-0.3,0.2-0.5,0.5-0.5h2.1c0.3,0,0.5,0.2,0.5,0.5v15.4c0,0.3-0.2,0.5-0.5,0.5H162
			C161.8,18.4,161.6,18.2,161.6,17.9z"/>
		<path class="st0" d="M166.9,14.5c0-0.3,0.2-0.4,0.5-0.4h2.1c0.3,0,0.5,0.2,0.5,0.4c0,1,0.6,1.5,1.9,1.5c1.2,0,1.8-0.3,1.8-1
			c0-0.6-0.5-0.9-2.4-1.3c-2.6-0.6-3.8-1.8-3.8-3.8c0-2,1.8-3.3,4.5-3.3c2.8,0,4.6,1.4,4.6,3.6c0,0.3-0.2,0.4-0.5,0.4H174
			c-0.3,0-0.5-0.2-0.5-0.4c0-0.7-0.6-1.1-1.6-1.1c-0.9,0-1.4,0.4-1.4,0.9c0,0.6,0.4,0.8,2.4,1.3c2.9,0.7,3.8,1.6,3.8,3.6
			c0,2.3-1.8,3.7-4.9,3.7C168.8,18.6,166.9,17.1,166.9,14.5z"/>
		<path class="st0" d="M179.1,17.9V7.3c0-0.3,0.2-0.5,0.5-0.5h1.2c0.2,0,0.4,0.1,0.5,0.3c0.1,0.4,0.2,1,0.6,1c0.7,0,1.1-1.3,3.4-1.3
			h0.8c0.3,0,0.5,0.2,0.5,0.5v2.2c0,0.3-0.2,0.5-0.5,0.5h-0.8c-1.8,0-3.1,0.8-3.1,2.6v5.4c0,0.3-0.2,0.5-0.5,0.5h-2.1
			C179.3,18.4,179.1,18.2,179.1,17.9z"/>
		<path class="st0" d="M198.2,7.3v10.6c0,0.3-0.2,0.5-0.5,0.5h-1.2c-0.2,0-0.3,0-0.4-0.2c-0.2-0.3-0.3-0.6-0.6-0.6c-0.6,0-1,1-2.9,1
			c-2.6,0-4.2-1.6-4.2-4.2v-7c0-0.3,0.2-0.5,0.5-0.5h2.1c0.3,0,0.5,0.2,0.5,0.5v6.8c0,1,0.7,1.6,1.8,1.6s1.8-0.6,1.8-1.5V7.3
			c0-0.3,0.2-0.5,0.5-0.5h2.1C198,6.9,198.2,7.1,198.2,7.3z"/>
		<path class="st0" d="M201.4,17.9V2.5c0-0.3,0.2-0.5,0.5-0.5h2.1c0.3,0,0.5,0.2,0.5,0.5v4.1c0,0.3,0.2,0.5,0.4,0.5
			c0.2,0,0.9-0.5,2.1-0.5c2.6,0,4.2,1.6,4.2,4.3v7c0,0.3-0.2,0.5-0.5,0.5h-2.1c-0.3,0-0.5-0.2-0.5-0.5v-6.8c0-1-0.6-1.6-1.8-1.6
			c-1.1,0-1.8,0.6-1.8,1.5v6.9c0,0.3-0.2,0.5-0.5,0.5h-2.1C201.6,18.4,201.4,18.2,201.4,17.9z"/>
		<path class="st0" d="M214.8,16.8c-0.8-1-1.1-2.2-1.1-4.2c0-2,0.3-3.2,1.1-4.2c0.8-1.1,2.3-1.8,4-1.8c3.1,0,4.9,2,4.9,5.4v1
			c0,0.3-0.2,0.5-0.5,0.5H217c-0.1,0-0.2,0.1-0.2,0.2c0,1.5,0.6,2.2,2,2.2c1,0,1.6-0.3,1.8-1.1c0.1-0.3,0.3-0.4,0.6-0.4h2
			c0.3,0,0.5,0.2,0.4,0.5c-0.6,2.3-2.4,3.6-4.8,3.6C217.1,18.6,215.6,17.9,214.8,16.8z M220.6,11.2c0.1,0,0.2-0.1,0.2-0.2
			c0-1.1-0.9-2-2-2c-1.3,0-2.1,0.8-2.1,2c0,0.1,0.1,0.2,0.2,0.2C216.9,11.2,220.6,11.2,220.6,11.2z"/>
	</g>
	<g>
		<path class="st0" d="M3.5,39.2V28.2c0-0.3,0.2-0.5,0.5-0.5h0.6C4.8,27.8,5,28,5,28.2v10.9c0,1.8,1.6,3.5,3.6,3.5s3.6-1.6,3.6-3.5
			V28.2c0-0.3,0.2-0.5,0.5-0.5h0.6c0.3,0,0.5,0.2,0.5,0.5v10.9c0,2.7-2.3,4.9-5.1,4.9S3.5,41.9,3.5,39.2z"/>
		<path class="st0" d="M17.5,43.4V32.8c0-0.3,0.2-0.5,0.5-0.5h0.4c0.1,0,0.2,0.1,0.3,0.2c0.1,0.2,0.2,0.5,0.5,0.5
			c0.6,0,0.9-0.8,3.2-0.8c2.3,0,4,1.3,4,3.8v7.5c0,0.3-0.2,0.5-0.5,0.5h-0.5c-0.3,0-0.5-0.2-0.5-0.5v-7.2c0-1.8-1.3-2.7-3-2.7
			c-1.7,0-3,0.8-3,2.7v7.2c0,0.3-0.2,0.5-0.5,0.5h-0.5C17.7,43.9,17.5,43.7,17.5,43.4z"/>
		<path class="st0" d="M29.4,29.3v-1.4c0-0.2,0.2-0.4,0.4-0.4h1.4c0.2,0,0.4,0.2,0.4,0.4v1.4c0,0.2-0.2,0.4-0.4,0.4h-1.4
			C29.6,29.6,29.4,29.5,29.4,29.3z M30.8,43.9h-0.5c-0.3,0-0.5-0.2-0.5-0.5V32.8c0-0.3,0.1-0.5,0.5-0.5h0.5c0.3,0,0.5,0.2,0.5,0.5
			v10.6C31.2,43.7,31.1,43.9,30.8,43.9z"/>
		<path class="st0" d="M37.7,43.5l-4.1-10.4c-0.1-0.2-0.1-0.3-0.1-0.4c0-0.2,0.2-0.4,0.5-0.4h0.6c0.2,0,0.4,0.1,0.5,0.3l3.6,9.3
			c0,0.1,0.1,0.2,0.2,0.2s0.2,0,0.2-0.2l3.6-9.3c0.1-0.3,0.2-0.3,0.5-0.3h0.6c0.3,0,0.5,0.2,0.5,0.4c0,0.1,0,0.2-0.1,0.4l-4.1,10.4
			c-0.1,0.2-0.2,0.3-0.5,0.3h-1.2C38,43.9,37.8,43.8,37.7,43.5z"/>
		<path class="st0" d="M46.6,42.4c-0.8-1.1-1-2.2-1-4.3c0-1.9,0.3-2.9,1.1-4.2c0.8-1.2,2.1-1.8,3.8-1.8c3,0,4.8,1.9,4.8,5v1
			c0,0.3-0.2,0.5-0.5,0.5h-7.5c-0.1,0-0.2,0.1-0.2,0.2c0,2.5,1.2,3.8,3.5,3.8c1.5,0,2.8-0.6,3.2-2.2c0.1-0.3,0.3-0.4,0.5-0.4h0.5
			c0.3,0,0.5,0.2,0.4,0.5c-0.3,2-2.2,3.5-4.6,3.5C48.7,44.1,47.3,43.5,46.6,42.4z M53.5,37.4c0.1,0,0.2-0.1,0.2-0.2
			c0-2.3-1.2-3.7-3.3-3.7c-2.1,0-3.4,1.4-3.4,3.7c0,0.1,0.1,0.2,0.2,0.2H53.5z"/>
		<path class="st0" d="M58.4,43.4V32.8c0-0.3,0.2-0.5,0.5-0.5h0.3c0.3,0,0.4,0.1,0.5,0.5c0.1,0.3,0.1,0.8,0.4,0.8
			c0.6,0,1-1.3,3.2-1.3h0.3c0.3,0,0.5,0.2,0.5,0.5v0.5c0,0.3-0.2,0.5-0.5,0.5h-0.3c-1.5,0-3.5,0.8-3.5,3.9v5.8
			c0,0.3-0.2,0.5-0.5,0.5h-0.5C58.6,43.9,58.4,43.7,58.4,43.4z"/>
		<path class="st0" d="M65,40.1c0-0.3,0.2-0.5,0.5-0.5H66c0.3,0,0.5,0.2,0.5,0.5c0,1.7,1.2,2.7,3.2,2.7c2,0,3.1-0.7,3.1-2
			c0-1.3-0.8-1.8-3.5-2.3c-2.7-0.5-3.8-1.5-3.8-3.2c0-1.8,1.8-3.1,4.2-3.1c2.6,0,4.2,1.3,4.2,3.5c0,0.3-0.2,0.5-0.5,0.5H73
			c-0.3,0-0.5-0.2-0.5-0.5c0-1.5-0.9-2.2-2.8-2.2c-1.7,0-2.7,0.7-2.7,1.8c0,1.1,0.7,1.5,3.3,2.1c2.9,0.7,3.8,1.5,3.8,3.5
			c0,2-1.8,3.3-4.6,3.3C66.8,44.1,65,42.6,65,40.1z"/>
		<path class="st0" d="M76.7,29.3v-1.4c0-0.2,0.2-0.4,0.4-0.4h1.4c0.2,0,0.4,0.2,0.4,0.4v1.4c0,0.2-0.2,0.4-0.4,0.4h-1.4
			C76.9,29.6,76.7,29.5,76.7,29.3z M78,43.9h-0.5c-0.3,0-0.5-0.2-0.5-0.5V32.8c0-0.3,0.1-0.5,0.5-0.5H78c0.3,0,0.5,0.2,0.5,0.5v10.6
			C78.5,43.7,78.4,43.9,78,43.9z"/>
		<path class="st0" d="M83.4,40.2v-6.1c0-0.1-0.1-0.2-0.2-0.2h-1.9c-0.3,0-0.5-0.2-0.5-0.5v-0.4c0-0.3,0.2-0.5,0.5-0.5h1.9
			c0.1,0,0.2-0.1,0.2-0.2v-3.6c0-0.3,0.2-0.5,0.5-0.5h0.5c0.3,0,0.5,0.2,0.5,0.5v3.6c0,0.1,0.1,0.2,0.2,0.2h3c0.3,0,0.5,0.2,0.5,0.5
			v0.4c0,0.3-0.2,0.5-0.5,0.5h-3c-0.1,0-0.2,0.1-0.2,0.2v6.1c0,1.6,0.6,2.3,2.3,2.3h1.2c0.3,0,0.5,0.2,0.5,0.5v0.4
			c0,0.3-0.2,0.5-0.5,0.5h-1.2C84.7,43.9,83.4,42.8,83.4,40.2z"/>
		<path class="st0" d="M92.7,48.1c0-0.1,0-0.2,0.1-0.3l1.7-4.4c0.1-0.1,0.1-0.2,0.1-0.2c0-0.1,0-0.1-0.1-0.3l-4.4-9.8
			C90,33,90,32.9,90,32.8c0-0.2,0.2-0.4,0.4-0.4h0.7c0.2,0,0.3,0.1,0.4,0.3l3.7,8.4c0.1,0.1,0.1,0.1,0.1,0.1s0.1,0,0.1-0.1l3.2-8.4
			c0.1-0.3,0.2-0.3,0.4-0.3h0.7c0.3,0,0.4,0.2,0.4,0.4c0,0.1,0,0.2-0.1,0.4l-6,15c-0.1,0.3-0.2,0.3-0.4,0.3h-0.5
			C92.8,48.5,92.7,48.3,92.7,48.1z"/>
		<path class="st0" d="M107.5,42c-0.6-1-0.8-1.8-0.8-3.9s0.2-3,0.8-3.9c0.9-1.3,2.3-2.1,4-2.1c1.8,0,3.2,0.8,4,2.1
			c0.7,0.9,0.8,1.8,0.8,3.9s-0.2,3-0.8,3.9c-0.8,1.3-2.3,2.1-4,2.1C109.8,44.1,108.4,43.3,107.5,42z M114.5,41
			c0.3-0.7,0.4-1.3,0.4-2.8c0-1.6-0.1-2.2-0.4-2.8c-0.5-1.1-1.7-1.8-2.9-1.8s-2.4,0.7-2.9,1.8c-0.3,0.7-0.4,1.3-0.4,2.8
			c0,1.6,0.1,2.2,0.4,2.8c0.6,1.1,1.7,1.8,2.9,1.8S114,42.1,114.5,41z"/>
		<path class="st0" d="M120.6,43.4v-9.3c0-0.1-0.1-0.2-0.2-0.2h-2.1c-0.3,0-0.5-0.2-0.5-0.5v-0.4c0-0.3,0.2-0.5,0.5-0.5h2.1
			c0.1,0,0.2-0.1,0.2-0.2v-0.4c0-2.6,1.6-4.3,4.1-4.3h0.1c0.3,0,0.5,0.2,0.5,0.5v0.4c0,0.3-0.2,0.5-0.5,0.5h-0.1
			c-1.7,0-2.6,1.1-2.6,3v0.4c0,0.1,0.1,0.2,0.2,0.2h2.7c0.3,0,0.5,0.2,0.5,0.5v0.4c0,0.3-0.2,0.5-0.5,0.5h-2.7
			c-0.1,0-0.2,0.1-0.2,0.2v9.3c0,0.3-0.2,0.5-0.5,0.5h-0.5C120.8,43.9,120.6,43.7,120.6,43.4z"/>
	</g>
	<g>
		<path class="st0" d="M2.2,69c0-0.1,0-0.2,0-0.3l4.6-15.2c0.1-0.2,0.2-0.3,0.4-0.3h1.2c0.2,0,0.4,0.1,0.4,0.3l4.6,15.2
			c0,0.1,0.1,0.2,0.1,0.3c0,0.2-0.2,0.3-0.5,0.3h-0.6c-0.2,0-0.4-0.1-0.4-0.3l-1.2-3.9c-0.1-0.2-0.2-0.3-0.4-0.3h-5
			c-0.2,0-0.4,0.1-0.4,0.3L3.7,69c-0.1,0.2-0.2,0.3-0.5,0.3H2.7C2.3,69.4,2.2,69.2,2.2,69z M9.9,63.4c0.1,0,0.2-0.1,0.2-0.3
			l-2.2-7.8c0-0.1-0.1-0.1-0.1-0.1h0c-0.1,0-0.1,0-0.1,0.1l-2.2,7.8c-0.1,0.2,0.1,0.3,0.2,0.3H9.9z"/>
		<path class="st0" d="M15.8,73.5V58.3c0-0.3,0.2-0.5,0.5-0.5h0.4c0.2,0,0.3,0,0.4,0.2c0.2,0.3,0.4,0.4,0.6,0.4
			c0.6,0,0.8-0.9,2.8-0.9c1.7,0,3.1,0.7,3.8,1.9c0.6,1.1,0.8,2.2,0.8,4.1c0,2-0.2,3.1-0.8,4.1c-0.7,1.2-2.1,1.9-3.8,1.9
			c-1.9,0-2.1-0.7-2.7-0.7c-0.3,0-0.5,0.2-0.5,0.7v3.9c0,0.3-0.2,0.5-0.5,0.5h-0.5C16,74,15.8,73.8,15.8,73.5z M23.1,66.5
			c0.3-0.7,0.4-1.4,0.4-2.8c0-1.5-0.1-2.2-0.4-2.8c-0.5-1.2-1.3-1.8-2.7-1.8c-1.4,0-2.2,0.5-2.7,1.8c-0.3,0.6-0.4,1.4-0.4,2.8
			c0,1.4,0.1,2.1,0.4,2.9c0.5,1.2,1.3,1.8,2.7,1.8S22.6,67.7,23.1,66.5z"/>
		<path class="st0" d="M28.1,73.5V58.3c0-0.3,0.2-0.5,0.5-0.5h0.4c0.2,0,0.3,0,0.4,0.2c0.2,0.3,0.4,0.4,0.6,0.4
			c0.6,0,0.8-0.9,2.8-0.9c1.7,0,3.1,0.7,3.8,1.9c0.6,1.1,0.8,2.2,0.8,4.1c0,2-0.2,3.1-0.8,4.1c-0.7,1.2-2.1,1.9-3.8,1.9
			c-1.9,0-2.1-0.7-2.7-0.7c-0.3,0-0.5,0.2-0.5,0.7v3.9c0,0.3-0.2,0.5-0.5,0.5h-0.5C28.3,74,28.1,73.8,28.1,73.5z M35.3,66.5
			c0.3-0.7,0.4-1.4,0.4-2.8c0-1.5-0.1-2.2-0.4-2.8C34.8,59.5,34,59,32.6,59c-1.4,0-2.2,0.5-2.7,1.8c-0.3,0.6-0.4,1.4-0.4,2.8
			c0,1.4,0.1,2.1,0.4,2.9c0.5,1.2,1.3,1.8,2.7,1.8S34.8,67.7,35.3,66.5z"/>
		<path class="st0" d="M40.3,68.9V53.5c0-0.3,0.2-0.5,0.5-0.5h0.5c0.3,0,0.5,0.2,0.5,0.5v15.4c0,0.3-0.2,0.5-0.5,0.5h-0.5
			C40.5,69.4,40.3,69.2,40.3,68.9z"/>
		<path class="st0" d="M45,54.8v-1.4c0-0.2,0.2-0.4,0.4-0.4h1.4c0.2,0,0.4,0.2,0.4,0.4v1.4c0,0.2-0.2,0.4-0.4,0.4h-1.4
			C45.1,55.1,45,55,45,54.8z M46.3,69.4h-0.5c-0.3,0-0.5-0.2-0.5-0.5V58.3c0-0.3,0.1-0.5,0.5-0.5h0.5c0.3,0,0.5,0.2,0.5,0.5v10.6
			C46.8,69.2,46.6,69.4,46.3,69.4z"/>
		<path class="st0" d="M50.9,67.9c-0.8-1.1-1-2.2-1-4.3c0-1.9,0.3-2.9,1.1-4.2c0.8-1.2,2.1-1.8,3.8-1.8c3,0,4.8,1.9,4.8,5v1
			c0,0.3-0.2,0.5-0.5,0.5h-7.5c-0.1,0-0.2,0.1-0.2,0.2c0,2.5,1.2,3.8,3.5,3.8c1.5,0,2.8-0.6,3.2-2.2c0.1-0.3,0.3-0.4,0.5-0.4H59
			c0.3,0,0.5,0.2,0.4,0.5c-0.3,2.1-2.2,3.4-4.6,3.4C53,69.6,51.7,69,50.9,67.9z M57.9,62.9c0.1,0,0.2-0.1,0.2-0.2
			c0-2.3-1.2-3.7-3.3-3.7c-2.1,0-3.4,1.4-3.4,3.7c0,0.1,0.1,0.2,0.2,0.2H57.9z"/>
		<path class="st0" d="M63.1,67.7c-0.6-1-0.8-2.1-0.8-4.1c0-2,0.2-3.1,0.8-4.1c0.7-1.2,2.1-1.9,3.8-1.9c1.9,0,2.2,0.7,2.7,0.7
			c0.3,0,0.5-0.2,0.5-0.7v-4.1c0-0.3,0.2-0.5,0.5-0.5h0.4c0.3,0,0.5,0.2,0.5,0.5v15.4c0,0.3-0.2,0.5-0.5,0.5h-0.4
			c-0.2,0-0.3-0.1-0.4-0.2c-0.2-0.3-0.4-0.4-0.6-0.4c-0.6,0-0.8,0.9-2.8,0.9C65.2,69.6,63.8,68.9,63.1,67.7z M69.6,66.5
			c0.3-0.6,0.4-1.3,0.4-2.8c0-1.4-0.1-2.1-0.4-2.8c-0.5-1.2-1.3-1.8-2.7-1.8c-1.4,0-2.2,0.5-2.7,1.8c-0.3,0.7-0.4,1.4-0.4,2.8
			c0,1.4,0.1,2.2,0.4,2.8c0.5,1.2,1.3,1.8,2.7,1.8C68.2,68.2,69,67.7,69.6,66.5z"/>
		<path class="st0" d="M79.4,64.8v-0.4c0-0.3,0.2-0.5,0.5-0.5h0.6c0.3,0,0.5,0.2,0.5,0.5v0.4c0,2.1,1.5,3.4,3.6,3.4
			c2.1,0,3.5-1.1,3.5-3.1c0-2.1-1.6-2.8-3.9-3.5c-2.1-0.6-4.3-1.7-4.3-4.5c0-2.8,2.4-4,4.8-4c2.7,0,4.7,1.6,4.7,4.4v0.3
			c0,0.3-0.2,0.5-0.5,0.5h-0.6c-0.3,0-0.5-0.2-0.5-0.5v-0.3c0-1.9-1.3-2.9-3.1-2.9c-1.9,0-3.2,0.8-3.2,2.6c0,1.9,1.9,2.7,4.1,3.3
			c2.2,0.6,4.1,1.8,4.1,4.6c0,3-2.5,4.6-5.1,4.6C81.6,69.6,79.4,67.9,79.4,64.8z"/>
		<path class="st0" d="M92.9,67.5c-0.8-1.1-0.8-2.3-0.8-3.9s0.1-2.8,0.8-3.9c0.8-1.2,2.2-2.1,4-2.1c1.3,0,2.5,0.3,3.3,1
			c0.8,0.7,1.2,1.8,1.2,2.9c0,0.3-0.1,0.5-0.4,0.5h-0.6c-0.2,0-0.4-0.1-0.4-0.4c0-0.7-0.3-1.5-0.9-2C98.6,59.2,97.8,59,97,59
			c-1.3,0-2.4,0.6-2.9,1.8c-0.4,0.7-0.4,1.5-0.4,2.8s0.1,2.1,0.4,2.9c0.6,1.2,1.6,1.8,2.9,1.8c1.1,0,1.9-0.3,2.3-0.8
			c0.4-0.5,0.7-1.2,0.7-1.8c0-0.3,0.2-0.4,0.4-0.4h0.6c0.3,0,0.5,0.2,0.5,0.5c0,0.9-0.4,1.9-1,2.6c-0.8,0.8-2,1.3-3.5,1.3
			C95.2,69.6,93.8,68.8,92.9,67.5z"/>
		<path class="st0" d="M104,54.8v-1.4c0-0.2,0.2-0.4,0.4-0.4h1.4c0.2,0,0.4,0.2,0.4,0.4v1.4c0,0.2-0.2,0.4-0.4,0.4h-1.4
			C104.2,55.1,104,55,104,54.8z M105.4,69.4h-0.5c-0.3,0-0.5-0.2-0.5-0.5V58.3c0-0.3,0.1-0.5,0.5-0.5h0.5c0.3,0,0.5,0.2,0.5,0.5
			v10.6C105.8,69.2,105.7,69.4,105.4,69.4z"/>
		<path class="st0" d="M110,67.9c-0.8-1.1-1-2.2-1-4.3c0-1.9,0.3-2.9,1.1-4.2c0.8-1.2,2.1-1.8,3.8-1.8c3,0,4.8,1.9,4.8,5v1
			c0,0.3-0.2,0.5-0.5,0.5h-7.5c-0.1,0-0.2,0.1-0.2,0.2c0,2.5,1.2,3.8,3.4,3.8c1.5,0,2.8-0.6,3.2-2.2c0.1-0.3,0.3-0.4,0.6-0.4h0.5
			c0.3,0,0.5,0.2,0.4,0.5c-0.3,2.1-2.2,3.4-4.6,3.4C112.1,69.6,110.8,69,110,67.9z M117,62.9c0.1,0,0.2-0.1,0.2-0.2
			c0-2.3-1.2-3.7-3.3-3.7c-2.1,0-3.4,1.4-3.4,3.7c0,0.1,0.1,0.2,0.2,0.2H117z"/>
		<path class="st0" d="M121.8,68.9V58.3c0-0.3,0.2-0.5,0.5-0.5h0.4c0.1,0,0.2,0.1,0.3,0.2c0.1,0.2,0.2,0.5,0.5,0.5
			c0.7,0,0.9-0.8,3.2-0.8c2.3,0,4,1.3,4,3.8v7.5c0,0.3-0.2,0.5-0.5,0.5h-0.4c-0.3,0-0.5-0.2-0.5-0.5v-7.2c0-1.8-1.3-2.7-3-2.7
			s-3,0.8-3,2.7v7.2c0,0.3-0.2,0.5-0.5,0.5h-0.4C122,69.4,121.8,69.2,121.8,68.9z"/>
		<path class="st0" d="M134.6,67.5c-0.8-1.1-0.8-2.3-0.8-3.9s0.1-2.8,0.8-3.9c0.8-1.2,2.2-2.1,4-2.1c1.3,0,2.5,0.3,3.3,1
			c0.8,0.7,1.2,1.8,1.2,2.9c0,0.3-0.1,0.5-0.4,0.5h-0.6c-0.2,0-0.5-0.1-0.5-0.4c0-0.7-0.3-1.5-0.9-2c-0.5-0.4-1.3-0.6-2.1-0.6
			c-1.3,0-2.4,0.6-2.9,1.8c-0.4,0.7-0.4,1.5-0.4,2.8s0.1,2.1,0.4,2.9c0.6,1.2,1.6,1.8,2.9,1.8c1.1,0,1.9-0.3,2.3-0.8
			c0.5-0.5,0.7-1.2,0.7-1.8c0-0.3,0.2-0.4,0.5-0.4h0.6c0.3,0,0.5,0.2,0.5,0.5c0,0.9-0.4,1.9-1,2.6c-0.8,0.8-2,1.3-3.5,1.3
			C136.8,69.6,135.4,68.8,134.6,67.5z"/>
		<path class="st0" d="M146.2,67.9c-0.8-1.1-1-2.2-1-4.3c0-1.9,0.3-2.9,1.1-4.2c0.8-1.2,2.1-1.8,3.8-1.8c3,0,4.8,1.9,4.8,5v1
			c0,0.3-0.2,0.5-0.5,0.5h-7.5c-0.1,0-0.2,0.1-0.2,0.2c0,2.5,1.2,3.8,3.4,3.8c1.5,0,2.8-0.6,3.2-2.2c0.1-0.3,0.3-0.4,0.6-0.4h0.5
			c0.3,0,0.4,0.2,0.4,0.5c-0.3,2.1-2.2,3.4-4.6,3.4C148.3,69.6,146.9,69,146.2,67.9z M153.1,62.9c0.1,0,0.2-0.1,0.2-0.2
			c0-2.3-1.2-3.7-3.3-3.7c-2.1,0-3.4,1.4-3.4,3.7c0,0.1,0.1,0.2,0.2,0.2H153.1z"/>
		<path class="st0" d="M157.2,65.6c0-0.3,0.2-0.5,0.5-0.5h0.5c0.3,0,0.5,0.2,0.5,0.5c0,1.7,1.2,2.7,3.2,2.7c2,0,3.1-0.7,3.1-2
			c0-1.3-0.8-1.8-3.5-2.3c-2.7-0.5-3.8-1.5-3.8-3.2c0-1.8,1.8-3.1,4.2-3.1c2.6,0,4.2,1.3,4.2,3.5c0,0.3-0.2,0.5-0.5,0.5h-0.5
			c-0.3,0-0.5-0.2-0.5-0.5c0-1.5-0.9-2.2-2.8-2.2c-1.7,0-2.7,0.7-2.7,1.8c0,1.1,0.7,1.5,3.4,2.1c2.9,0.7,3.8,1.5,3.8,3.5
			c0,2-1.8,3.3-4.6,3.3C159,69.6,157.2,68.1,157.2,65.6z"/>
	</g>
	<g>
		<path class="st0" d="M3.6,110.9V95.7c0-0.3,0.2-0.5,0.5-0.5h7.5c0.3,0,0.5,0.2,0.5,0.5v0.6c0,0.3-0.2,0.5-0.5,0.5H5.4
			c-0.1,0-0.2,0.1-0.2,0.2v5.2c0,0.1,0.1,0.2,0.2,0.2h5.9c0.3,0,0.5,0.2,0.5,0.5v0.6c0,0.3-0.2,0.5-0.5,0.5H5.4
			c-0.1,0-0.2,0.1-0.2,0.2v6.8c0,0.3-0.2,0.5-0.5,0.5H4.1C3.8,111.3,3.6,111.1,3.6,110.9z"/>
		<path class="st0" d="M13.6,107.9c0-1.9,1.4-3.4,3.9-3.4h3.4c0.1,0,0.2-0.1,0.2-0.2v-0.9c0-1.5-1-2.5-2.8-2.5c-1.6,0-2.9,0.8-2.9,2
			c0,0.3-0.3,0.4-0.5,0.4h-0.4c-0.4,0-0.5-0.2-0.5-0.5c0-2.1,2.1-3.2,4.3-3.2c2.5,0,4.2,1.2,4.2,3.8v7.4c0,0.3-0.2,0.5-0.5,0.5h-0.2
			c-0.1,0-0.3-0.1-0.3-0.2c-0.1-0.2-0.2-0.5-0.5-0.5c-0.4,0-1.4,0.9-3.2,0.9C15,111.6,13.6,109.8,13.6,107.9z M21.2,107.4V106
			c0-0.1-0.1-0.2-0.2-0.2h-3.5c-1.4,0-2.5,0.7-2.5,2.1c0,1.6,1.3,2.4,2.8,2.4C20,110.3,21.2,109.3,21.2,107.4z"/>
		<path class="st0" d="M26,110.9V95.5c0-0.3,0.2-0.5,0.5-0.5H27c0.3,0,0.5,0.2,0.5,0.5v8.9c0,0.1,0,0.1,0.1,0.1c0,0,0.1-0.1,0.2-0.1
			l4.8-4.3c0.1-0.1,0.3-0.3,0.7-0.3h0.5c0.3,0,0.5,0.2,0.5,0.4c0,0.1,0,0.3-0.1,0.3l-5.1,4.5c-0.1,0.1-0.1,0.2-0.1,0.3
			c0,0.1,0,0.2,0.1,0.3l5.3,4.9c0.1,0.1,0.2,0.2,0.2,0.4c0,0.2-0.2,0.4-0.5,0.4h-0.5c-0.4,0-0.6-0.2-0.7-0.3l-4.8-4.6
			c-0.1-0.1-0.2-0.1-0.2-0.1s-0.1,0-0.1,0.1v4.5c0,0.3-0.2,0.5-0.5,0.5h-0.5C26.2,111.3,26,111.1,26,110.9z"/>
		<path class="st0" d="M45.2,100.3v10.6c0,0.3-0.2,0.5-0.5,0.5h-0.4c-0.1,0-0.2-0.1-0.3-0.2c-0.1-0.2-0.2-0.5-0.5-0.5
			c-0.7,0-0.9,0.8-3.2,0.8c-2.3,0-4-1.3-4-3.8v-7.4c0-0.3,0.2-0.5,0.5-0.5h0.5c0.3,0,0.5,0.2,0.5,0.5v7.2c0,1.8,1.3,2.7,3,2.7
			s3-0.8,3-2.7v-7.2c0-0.3,0.2-0.5,0.5-0.5h0.5C45,99.8,45.2,100.1,45.2,100.3z"/>
		<path class="st0" d="M48.8,110.9V95.5c0-0.3,0.2-0.5,0.5-0.5h0.5c0.3,0,0.5,0.2,0.5,0.5v15.4c0,0.3-0.2,0.5-0.5,0.5h-0.5
			C49,111.3,48.8,111.1,48.8,110.9z"/>
		<path class="st0" d="M55.1,107.7v-6.1c0-0.1-0.1-0.2-0.2-0.2H53c-0.3,0-0.5-0.2-0.5-0.5v-0.4c0-0.3,0.2-0.5,0.5-0.5h1.9
			c0.1,0,0.2-0.1,0.2-0.2v-3.6c0-0.3,0.2-0.5,0.5-0.5h0.5c0.3,0,0.5,0.2,0.5,0.5v3.6c0,0.1,0.1,0.2,0.2,0.2h3c0.3,0,0.5,0.2,0.5,0.5
			v0.4c0,0.3-0.2,0.5-0.5,0.5h-3c-0.1,0-0.2,0.1-0.2,0.2v6.1c0,1.6,0.6,2.3,2.3,2.3H60c0.3,0,0.5,0.2,0.5,0.5v0.4
			c0,0.3-0.2,0.5-0.5,0.5h-1.2C56.3,111.3,55.1,110.3,55.1,107.7z"/>
		<path class="st0" d="M62,107.9c0-1.9,1.4-3.4,4-3.4h3.4c0.1,0,0.2-0.1,0.2-0.2v-0.9c0-1.5-1-2.5-2.8-2.5c-1.6,0-2.9,0.8-2.9,2
			c0,0.3-0.3,0.4-0.5,0.4H63c-0.4,0-0.5-0.2-0.5-0.5c0-2.1,2.1-3.2,4.3-3.2c2.5,0,4.2,1.2,4.2,3.8v7.4c0,0.3-0.2,0.5-0.5,0.5h-0.2
			c-0.1,0-0.3-0.1-0.3-0.2c-0.1-0.2-0.2-0.5-0.5-0.5c-0.4,0-1.4,0.9-3.2,0.9C63.4,111.6,62,109.8,62,107.9z M69.7,107.4V106
			c0-0.1-0.1-0.2-0.2-0.2h-3.5c-1.4,0-2.5,0.7-2.5,2.1c0,1.6,1.3,2.4,2.8,2.4C68.4,110.3,69.7,109.3,69.7,107.4z M63.9,96.6v-1.2
			c0-0.2,0.2-0.4,0.4-0.4h1.2c0.2,0,0.4,0.2,0.4,0.4v1.2c0,0.2-0.2,0.4-0.4,0.4h-1.2C64.1,97,63.9,96.8,63.9,96.6z M68,96.6v-1.2
			c0-0.2,0.2-0.4,0.4-0.4h1.2c0.2,0,0.4,0.2,0.4,0.4v1.2c0,0.2-0.2,0.4-0.4,0.4h-1.2C68.1,97,68,96.8,68,96.6z"/>
		<path class="st0" d="M75.3,107.7v-6.1c0-0.1-0.1-0.2-0.2-0.2h-1.9c-0.3,0-0.5-0.2-0.5-0.5v-0.4c0-0.3,0.2-0.5,0.5-0.5h1.9
			c0.1,0,0.2-0.1,0.2-0.2v-3.6c0-0.3,0.2-0.5,0.5-0.5h0.5c0.3,0,0.5,0.2,0.5,0.5v3.6c0,0.1,0.1,0.2,0.2,0.2h3c0.3,0,0.5,0.2,0.5,0.5
			v0.4c0,0.3-0.2,0.5-0.5,0.5h-3c-0.1,0-0.2,0.1-0.2,0.2v6.1c0,1.6,0.6,2.3,2.3,2.3h1.2c0.3,0,0.5,0.2,0.5,0.5v0.4
			c0,0.3-0.2,0.5-0.5,0.5h-1.2C76.6,111.3,75.3,110.3,75.3,107.7z"/>
		<path class="st0" d="M88.9,110.9v-9.3c0-0.1-0.1-0.2-0.2-0.2h-2.1c-0.3,0-0.5-0.2-0.5-0.5v-0.4c0-0.3,0.2-0.5,0.5-0.5h2.1
			c0.1,0,0.2-0.1,0.2-0.2v-0.4c0-2.6,1.6-4.3,4.1-4.3h0.1c0.3,0,0.5,0.2,0.5,0.5v0.4c0,0.3-0.2,0.5-0.5,0.5h-0.1
			c-1.7,0-2.6,1.1-2.6,3v0.4c0,0.1,0.1,0.2,0.2,0.2h2.7c0.3,0,0.5,0.2,0.5,0.5v0.4c0,0.3-0.2,0.5-0.5,0.5h-2.7
			c-0.1,0-0.2,0.1-0.2,0.2v9.3c0,0.3-0.2,0.5-0.5,0.5h-0.5C89.1,111.3,88.9,111.1,88.9,110.9z"/>
		<path class="st0" d="M104.8,100.3v10.6c0,0.3-0.2,0.5-0.5,0.5h-0.4c-0.1,0-0.2-0.1-0.3-0.2c-0.1-0.2-0.2-0.5-0.5-0.5
			c-0.7,0-0.9,0.8-3.2,0.8c-2.3,0-4-1.3-4-3.8v-7.4c0-0.3,0.2-0.5,0.5-0.5h0.4c0.3,0,0.5,0.2,0.5,0.5v7.2c0,1.8,1.3,2.7,3,2.7
			s3-0.8,3-2.7v-7.2c0-0.3,0.2-0.5,0.5-0.5h0.4C104.6,99.8,104.8,100.1,104.8,100.3z M97.2,96.6v-1.2c0-0.2,0.2-0.4,0.4-0.4h1.2
			c0.2,0,0.4,0.2,0.4,0.4v1.2c0,0.2-0.2,0.4-0.4,0.4h-1.2C97.4,97,97.2,96.8,97.2,96.6z M101.3,96.6v-1.2c0-0.2,0.2-0.4,0.4-0.4h1.2
			c0.2,0,0.4,0.2,0.4,0.4v1.2c0,0.2-0.2,0.4-0.4,0.4h-1.2C101.5,97,101.3,96.8,101.3,96.6z"/>
		<path class="st0" d="M108.3,110.9v-10.6c0-0.3,0.2-0.5,0.5-0.5h0.3c0.3,0,0.4,0.1,0.5,0.5c0.1,0.3,0.1,0.8,0.4,0.8
			c0.6,0,1.1-1.3,3.2-1.3h0.3c0.3,0,0.5,0.2,0.5,0.5v0.5c0,0.3-0.2,0.5-0.5,0.5h-0.3c-1.5,0-3.5,0.8-3.5,3.9v5.8
			c0,0.3-0.2,0.5-0.5,0.5h-0.4C108.6,111.3,108.3,111.1,108.3,110.9z"/>
	</g>
	<g>
		<path class="st0" d="M3.3,136.4v-15.2c0-0.3,0.2-0.5,0.5-0.5h3.5c0.3,0,0.4,0.1,0.5,0.4l2.4,10.4c0.1,0.2,0.1,0.3,0.2,0.3
			c0.1,0,0.2-0.1,0.2-0.3l2.4-10.4c0.1-0.3,0.2-0.4,0.5-0.4h3.5c0.3,0,0.5,0.2,0.5,0.5v15.2c0,0.3-0.2,0.5-0.5,0.5H15
			c-0.3,0-0.5-0.2-0.5-0.5v-9.2c0-0.2-0.1-0.3-0.1-0.3s-0.1,0.1-0.2,0.2l-2.3,9.4c-0.1,0.3-0.2,0.4-0.5,0.4H9.5
			c-0.3,0-0.4-0.1-0.5-0.4l-2.3-9.4c0-0.1-0.1-0.2-0.2-0.2s-0.1,0.1-0.1,0.3v9.2c0,0.3-0.2,0.5-0.5,0.5H3.8
			C3.5,136.8,3.3,136.6,3.3,136.4z"/>
		<path class="st0" d="M20.3,133.3c0-1.8,1.4-3.6,4.1-3.6h2.4c0.1,0,0.2-0.1,0.2-0.2v-0.4c0-0.9-0.8-1.4-1.8-1.4
			c-0.5,0-1.5,0.1-1.6,0.8c-0.1,0.4-0.2,0.4-0.6,0.4h-1.7c-0.3,0-0.5-0.2-0.5-0.5c0-1.8,1.8-3.4,4.6-3.4c2.9,0,4.8,1.5,4.8,4.2v7.1
			c0,0.3-0.2,0.5-0.5,0.5h-1.2c-0.1,0-0.3-0.1-0.3-0.2c-0.1-0.2-0.3-0.5-0.5-0.5c-0.4,0-1.1,0.9-3.1,0.9
			C22,137.1,20.3,135.7,20.3,133.3z M27.2,132.9v-0.6c0-0.1-0.1-0.2-0.2-0.2h-2.2c-1,0-1.4,0.5-1.4,1.1c0,0.9,0.7,1.2,1.6,1.2
			C26.2,134.5,27.2,134.1,27.2,132.9z"/>
		<path class="st0" d="M32.3,133c0-0.3,0.2-0.4,0.5-0.4h2.1c0.3,0,0.5,0.2,0.5,0.4c0,1,0.6,1.5,1.9,1.5c1.2,0,1.8-0.3,1.8-1
			c0-0.6-0.5-0.9-2.4-1.3c-2.6-0.6-3.8-1.8-3.8-3.8c0-2,1.8-3.3,4.5-3.3c2.8,0,4.5,1.4,4.5,3.6c0,0.3-0.2,0.4-0.5,0.4h-1.9
			c-0.3,0-0.5-0.2-0.5-0.4c0-0.7-0.6-1.1-1.6-1.1c-0.9,0-1.4,0.3-1.4,0.9c0,0.6,0.4,0.8,2.4,1.3c2.9,0.7,3.8,1.6,3.8,3.6
			c0,2.3-1.8,3.7-4.9,3.7C34.2,137.1,32.3,135.6,32.3,133z"/>
		<path class="st0" d="M45.1,135.3c-0.8-1-1-2.2-1-4.2c0-2,0.3-3.2,1-4.2c0.8-1.1,2.3-1.8,4-1.8c1.5,0,2.6,0.3,3.5,1
			c0.9,0.8,1.5,2,1.5,3.5c0,0.3-0.2,0.5-0.4,0.5h-2.2c-0.3,0-0.4-0.1-0.5-0.4c-0.1-0.6-0.2-1-0.5-1.2c-0.3-0.3-0.7-0.4-1.3-0.4
			c-0.7,0-1.2,0.2-1.5,0.6c-0.3,0.4-0.4,1-0.4,2.5s0.1,2.1,0.4,2.5c0.3,0.4,0.8,0.6,1.5,0.6c0.7,0,1-0.1,1.3-0.3
			c0.3-0.2,0.4-0.5,0.5-1.4c0-0.2,0.2-0.3,0.5-0.3h2.2c0.2,0,0.4,0.2,0.4,0.5c0,1.3-0.4,2.4-1.1,3.2c-0.8,0.9-2.2,1.3-3.8,1.3
			C47.5,137.1,46,136.4,45.1,135.3z"/>
		<path class="st0" d="M56.5,136.4V121c0-0.3,0.2-0.5,0.5-0.5h2.2c0.3,0,0.5,0.2,0.5,0.5v4.1c0,0.3,0.2,0.5,0.5,0.5
			c0.2,0,0.9-0.5,2.1-0.5c2.6,0,4.2,1.6,4.2,4.3v7c0,0.3-0.2,0.5-0.5,0.5h-2.2c-0.3,0-0.5-0.2-0.5-0.5v-6.8c0-1-0.7-1.6-1.8-1.6
			c-1.1,0-1.8,0.6-1.8,1.5v6.9c0,0.3-0.2,0.5-0.5,0.5H57C56.7,136.8,56.5,136.6,56.5,136.4z"/>
		<path class="st0" d="M69.2,123.3v-2.5c0-0.2,0.2-0.4,0.4-0.4h2.6c0.2,0,0.4,0.2,0.4,0.4v2.5c0,0.2-0.2,0.4-0.4,0.4h-2.6
			C69.4,123.7,69.2,123.6,69.2,123.3z M72,136.8h-2.3c-0.2,0-0.4-0.2-0.4-0.4v-10.8c0-0.2,0.2-0.4,0.4-0.4H72c0.2,0,0.4,0.2,0.4,0.4
			v10.8C72.4,136.7,72.3,136.8,72,136.8z"/>
		<path class="st0" d="M75.5,136.4v-10.6c0-0.3,0.2-0.5,0.5-0.5h1.2c0.2,0,0.3,0.1,0.4,0.2c0.2,0.3,0.3,0.6,0.7,0.6c0.6,0,1-1,2.9-1
			c2.6,0,4.2,1.6,4.2,4.3v7c0,0.3-0.2,0.5-0.5,0.5h-2.2c-0.3,0-0.5-0.2-0.5-0.5v-6.8c0-1-0.7-1.6-1.8-1.6s-1.8,0.6-1.8,1.5v6.9
			c0,0.3-0.2,0.5-0.5,0.5H76C75.8,136.8,75.5,136.6,75.5,136.4z"/>
		<path class="st0" d="M88.9,135.3c-0.8-1-1.1-2.2-1.1-4.2c0-2,0.3-3.2,1.1-4.2c0.8-1.1,2.3-1.8,4-1.8c3.1,0,4.9,1.9,4.9,5.5v1
			c0,0.3-0.2,0.5-0.5,0.5h-6.2c-0.1,0-0.2,0.1-0.2,0.2c0,1.5,0.6,2.2,2,2.2c1,0,1.6-0.3,1.8-1.1c0.1-0.3,0.3-0.4,0.6-0.4h2
			c0.3,0,0.5,0.2,0.4,0.5c-0.6,2.3-2.4,3.6-4.8,3.6C91.3,137.1,89.8,136.4,88.9,135.3z M94.7,129.7c0.1,0,0.2-0.1,0.2-0.2
			c0-1.1-0.9-2-2-2c-1.3,0-2.1,0.8-2.1,2c0,0.1,0.1,0.2,0.2,0.2H94.7z"/>
		<path class="st0" d="M100.5,136.4v-10.6c0-0.3,0.2-0.5,0.5-0.5h1.2c0.2,0,0.3,0.1,0.4,0.2c0.2,0.3,0.3,0.6,0.7,0.6
			c0.6,0,1-1,2.9-1c2.6,0,4.2,1.6,4.2,4.3v7c0,0.3-0.2,0.5-0.5,0.5h-2.2c-0.3,0-0.5-0.2-0.5-0.5v-6.8c0-1-0.7-1.6-1.8-1.6
			s-1.8,0.6-1.8,1.5v6.9c0,0.3-0.2,0.5-0.5,0.5H101C100.7,136.8,100.5,136.6,100.5,136.4z"/>
		<path class="st0" d="M115.8,136.2c-0.2,0-0.3,0.2-0.5,0.5c-0.1,0.1-0.2,0.2-0.3,0.2h-1.2c-0.3,0-0.5-0.2-0.5-0.5V121
			c0-0.3,0.2-0.5,0.5-0.5h2.2c0.3,0,0.5,0.2,0.5,0.5v4.1c0,0.4,0.2,0.5,0.4,0.5c0.3,0,0.7-0.4,1.8-0.4c1.5,0,2.7,0.6,3.6,1.8
			c0.7,1,1,1.9,1,4.2c0,2.2-0.2,3.2-1,4.2c-0.9,1.2-2.2,1.8-3.6,1.8C116.7,137.1,116.4,136.2,115.8,136.2z M119.7,133.5
			c0.3-0.5,0.3-1,0.3-2.4c0-1.4,0-1.9-0.3-2.4c-0.3-0.5-0.8-0.7-1.5-0.7s-1.3,0.2-1.5,0.7c-0.3,0.5-0.3,1-0.3,2.4
			c0,1.4,0,1.9,0.3,2.4c0.3,0.5,0.8,0.7,1.5,0.7C118.9,134.2,119.4,134,119.7,133.5z"/>
		<path class="st0" d="M125.2,133.3c0-1.8,1.4-3.6,4.1-3.6h2.4c0.1,0,0.2-0.1,0.2-0.2v-0.4c0-0.9-0.8-1.4-1.8-1.4
			c-0.5,0-1.5,0.1-1.6,0.8c-0.1,0.4-0.2,0.4-0.7,0.4h-1.7c-0.3,0-0.5-0.2-0.5-0.5c0-1.8,1.8-3.4,4.6-3.4c2.9,0,4.8,1.5,4.8,4.2v7.1
			c0,0.3-0.2,0.5-0.5,0.5h-1.2c-0.1,0-0.3-0.1-0.3-0.2c-0.1-0.2-0.3-0.5-0.6-0.5c-0.4,0-1.1,0.9-3.1,0.9
			C126.9,137.1,125.2,135.7,125.2,133.3z M132.1,132.9v-0.6c0-0.1-0.1-0.2-0.2-0.2h-2.2c-1,0-1.4,0.5-1.4,1.1c0,0.9,0.7,1.2,1.6,1.2
			C131.1,134.5,132.1,134.1,132.1,132.9z"/>
		<path class="st0" d="M147.8,125.8v10.6c0,0.3-0.2,0.5-0.5,0.5h-1.2c-0.2,0-0.3-0.1-0.4-0.2c-0.2-0.3-0.3-0.6-0.6-0.6
			c-0.6,0-1,1-2.9,1c-2.6,0-4.2-1.6-4.2-4.3v-7c0-0.3,0.2-0.5,0.5-0.5h2.1c0.3,0,0.5,0.2,0.5,0.5v6.8c0,1,0.7,1.6,1.8,1.6
			s1.8-0.6,1.8-1.5v-6.9c0-0.3,0.2-0.5,0.5-0.5h2.1C147.5,125.3,147.8,125.6,147.8,125.8z"/>
		<path class="st0" d="M165.4,125.8v10.6c0,0.3-0.2,0.5-0.5,0.5h-1.2c-0.2,0-0.3-0.1-0.4-0.2c-0.2-0.3-0.3-0.6-0.6-0.6
			c-0.6,0-1,1-2.9,1c-2.6,0-4.2-1.6-4.2-4.3v-7c0-0.3,0.2-0.5,0.5-0.5h2.1c0.3,0,0.5,0.2,0.5,0.5v6.8c0,1,0.7,1.6,1.8,1.6
			s1.8-0.6,1.8-1.5v-6.9c0-0.3,0.2-0.5,0.5-0.5h2.1C165.2,125.3,165.4,125.6,165.4,125.8z"/>
		<path class="st0" d="M168.6,136.4v-10.6c0-0.3,0.2-0.5,0.5-0.5h1.2c0.2,0,0.3,0.1,0.4,0.2c0.2,0.3,0.3,0.6,0.6,0.6
			c0.6,0,1-1,2.9-1c2.6,0,4.2,1.6,4.2,4.3v7c0,0.3-0.2,0.5-0.5,0.5h-2.1c-0.3,0-0.5-0.2-0.5-0.5v-6.8c0-1-0.7-1.6-1.8-1.6
			s-1.8,0.6-1.8,1.5v6.9c0,0.3-0.2,0.5-0.5,0.5h-2.1C168.8,136.8,168.6,136.6,168.6,136.4z"/>
		<path class="st0" d="M181.9,135.3c-0.7-1-1-1.9-1-4.2c0-2.2,0.2-3.2,1-4.2c0.9-1.2,2.1-1.8,3.6-1.8c1.1,0,1.5,0.4,1.8,0.4
			c0.2,0,0.4-0.1,0.4-0.5v-4.1c0-0.3,0.2-0.5,0.5-0.5h2.1c0.3,0,0.5,0.2,0.5,0.5v15.4c0,0.3-0.2,0.5-0.5,0.5h-1.2
			c-0.1,0-0.2-0.1-0.3-0.2c-0.2-0.3-0.3-0.5-0.5-0.5c-0.6,0-0.8,0.9-2.7,0.9C184,137.1,182.8,136.5,181.9,135.3z M187.4,133.5
			c0.3-0.5,0.3-1,0.3-2.4c0-1.4,0-1.9-0.3-2.4c-0.3-0.5-0.8-0.7-1.5-0.7s-1.3,0.2-1.5,0.7c-0.3,0.5-0.3,1-0.3,2.4
			c0,1.4,0,1.9,0.3,2.4c0.3,0.5,0.8,0.7,1.5,0.7C186.7,134.2,187.2,134,187.4,133.5z"/>
	</g>
	<g>
		<path class="st0" d="M3.3,161.9v-15.2c0-0.3,0.2-0.5,0.5-0.5h3.5c0.3,0,0.4,0.1,0.5,0.4l2.4,10.4c0.1,0.2,0.1,0.3,0.2,0.3
			c0.1,0,0.2-0.1,0.2-0.3l2.4-10.4c0.1-0.3,0.2-0.4,0.5-0.4h3.5c0.3,0,0.5,0.2,0.5,0.5v15.2c0,0.3-0.2,0.5-0.5,0.5H15
			c-0.3,0-0.5-0.2-0.5-0.5v-9.2c0-0.2-0.1-0.3-0.1-0.3s-0.1,0.1-0.2,0.2l-2.3,9.4c-0.1,0.3-0.2,0.4-0.5,0.4H9.5
			c-0.3,0-0.4-0.1-0.5-0.4l-2.3-9.4c0-0.1-0.1-0.2-0.2-0.2s-0.1,0.1-0.1,0.3v9.2c0,0.3-0.2,0.5-0.5,0.5H3.8
			C3.5,162.4,3.3,162.1,3.3,161.9z"/>
		<path class="st0" d="M21.6,160.8c-0.8-1-1-2.2-1-4.2c0-2,0.3-3.2,1-4.2c0.8-1.1,2.3-1.8,4-1.8c3.1,0,4.9,1.9,4.9,5.4v1
			c0,0.3-0.2,0.5-0.5,0.5h-6.2c-0.1,0-0.2,0.1-0.2,0.2c0,1.5,0.6,2.2,2,2.2c1,0,1.6-0.3,1.8-1.1c0.1-0.3,0.3-0.4,0.5-0.4h2
			c0.3,0,0.5,0.2,0.4,0.5c-0.6,2.3-2.4,3.6-4.8,3.6C23.9,162.6,22.4,161.9,21.6,160.8z M27.4,155.2c0.1,0,0.2-0.1,0.2-0.2
			c0-1.1-0.9-2-2-2c-1.3,0-2.1,0.8-2.1,2c0,0.1,0.1,0.2,0.2,0.2H27.4z"/>
		<path class="st0" d="M33.7,160.8c-0.8-1-1-2.2-1-4.2c0-2,0.3-3.2,1-4.2c0.8-1.1,2.3-1.8,4-1.8c1.5,0,2.6,0.4,3.5,1
			c0.9,0.8,1.5,2.1,1.5,3.5c0,0.3-0.2,0.5-0.4,0.5H40c-0.3,0-0.4-0.1-0.5-0.4c-0.1-0.6-0.2-1-0.5-1.2c-0.3-0.3-0.7-0.4-1.3-0.4
			c-0.7,0-1.2,0.2-1.5,0.6c-0.3,0.4-0.4,1-0.4,2.5s0.1,2.1,0.4,2.5c0.3,0.4,0.8,0.6,1.5,0.6c0.7,0,1-0.1,1.3-0.3
			c0.3-0.2,0.4-0.5,0.5-1.4c0-0.2,0.2-0.3,0.5-0.3h2.2c0.2,0,0.4,0.2,0.4,0.5c0,1.3-0.4,2.4-1.1,3.2c-0.8,0.9-2.2,1.3-3.8,1.3
			C36.1,162.6,34.6,161.9,33.7,160.8z"/>
		<path class="st0" d="M45.1,161.9v-15.4c0-0.3,0.2-0.5,0.5-0.5h2.2c0.3,0,0.5,0.2,0.5,0.5v4.1c0,0.3,0.2,0.5,0.5,0.5
			c0.2,0,0.9-0.5,2.1-0.5c2.6,0,4.2,1.6,4.2,4.3v7c0,0.3-0.2,0.5-0.5,0.5h-2.2c-0.3,0-0.5-0.2-0.5-0.5v-6.8c0-1-0.7-1.6-1.8-1.6
			c-1.1,0-1.8,0.6-1.8,1.5v6.9c0,0.3-0.2,0.5-0.5,0.5h-2.2C45.3,162.4,45.1,162.1,45.1,161.9z"/>
		<path class="st0" d="M57.3,158.8c0-1.8,1.4-3.6,4.1-3.6h2.4c0.1,0,0.2-0.1,0.2-0.2v-0.4c0-0.9-0.8-1.4-1.8-1.4
			c-0.5,0-1.5,0.1-1.7,0.8c-0.1,0.4-0.2,0.4-0.7,0.4h-1.7c-0.3,0-0.5-0.2-0.5-0.5c0-1.8,1.8-3.4,4.6-3.4c2.9,0,4.8,1.5,4.8,4.2v7.1
			c0,0.3-0.2,0.5-0.5,0.5h-1.2c-0.1,0-0.3-0.1-0.3-0.2c-0.1-0.2-0.3-0.5-0.6-0.5c-0.4,0-1.1,0.9-3.1,0.9
			C59,162.6,57.3,161.2,57.3,158.8z M64.2,158.4v-0.6c0-0.1-0.1-0.2-0.2-0.2h-2.2c-1,0-1.4,0.5-1.4,1.1c0,0.9,0.7,1.2,1.6,1.2
			C63.2,160,64.2,159.6,64.2,158.4z"/>
		<path class="st0" d="M71.1,158.1v-4.2c0-0.1-0.1-0.2-0.2-0.2h-1.9c-0.3,0-0.5-0.2-0.5-0.5v-1.8c0-0.3,0.2-0.5,0.5-0.5h1.9
			c0.1,0,0.2-0.1,0.2-0.2v-3.5c0-0.3,0.2-0.5,0.5-0.5h2.2c0.3,0,0.5,0.2,0.5,0.5v3.5c0,0.1,0.1,0.2,0.2,0.2H77
			c0.3,0,0.5,0.2,0.5,0.5v1.8c0,0.3-0.2,0.5-0.5,0.5h-2.6c-0.1,0-0.2,0.1-0.2,0.2v4.2c0,0.9,0.5,1.4,1.4,1.4h1.7
			c0.3,0,0.5,0.2,0.5,0.5v1.9c0,0.3-0.2,0.5-0.5,0.5h-1.9C72.4,162.4,71.1,161,71.1,158.1z"/>
		<path class="st0" d="M79.8,161.9v-10.6c0-0.3,0.2-0.5,0.5-0.5h1.2c0.2,0,0.4,0.1,0.5,0.3c0.1,0.4,0.2,1,0.7,1
			c0.7,0,1.1-1.3,3.4-1.3h0.8c0.3,0,0.5,0.2,0.5,0.5v2.2c0,0.3-0.2,0.5-0.5,0.5H86c-1.8,0-3.1,0.8-3.1,2.6v5.4
			c0,0.3-0.2,0.5-0.5,0.5h-2.2C80,162.4,79.8,162.1,79.8,161.9z"/>
		<path class="st0" d="M89.4,160.8c-0.8-1-1.1-2.2-1.1-4.2c0-2,0.3-3.2,1.1-4.2c0.8-1.1,2.3-1.8,4-1.8c1.7,0,3.2,0.7,4,1.8
			c0.8,1,1.1,2.2,1.1,4.2c0,2-0.3,3.2-1.1,4.2c-0.8,1.1-2.3,1.8-4,1.8S90.3,161.9,89.4,160.8z M95,159.1c0.3-0.4,0.4-1,0.4-2.5
			s-0.1-2.1-0.4-2.5c-0.3-0.4-0.7-0.6-1.5-0.6c-0.7,0-1.2,0.2-1.5,0.6c-0.3,0.4-0.4,1-0.4,2.5s0.1,2.1,0.4,2.5
			c0.3,0.4,0.8,0.6,1.5,0.6C94.2,159.6,94.7,159.5,95,159.1z"/>
		<path class="st0" d="M101.2,161.9v-10.6c0-0.3,0.2-0.5,0.5-0.5h1.2c0.2,0,0.3,0.1,0.4,0.2c0.2,0.3,0.3,0.6,0.7,0.6
			c0.6,0,1-1,2.9-1c2.6,0,4.2,1.6,4.2,4.3v7c0,0.3-0.2,0.5-0.5,0.5h-2.2c-0.3,0-0.5-0.2-0.5-0.5v-6.8c0-1-0.7-1.6-1.8-1.6
			s-1.8,0.6-1.8,1.5v6.9c0,0.3-0.2,0.5-0.5,0.5h-2.2C101.4,162.4,101.2,162.1,101.2,161.9z"/>
		<path class="st0" d="M113.8,148.9v-2.5c0-0.2,0.2-0.4,0.4-0.4h2.6c0.2,0,0.4,0.2,0.4,0.4v2.5c0,0.2-0.2,0.4-0.4,0.4h-2.6
			C114,149.2,113.8,149.1,113.8,148.9z M116.7,162.4h-2.3c-0.2,0-0.4-0.2-0.4-0.4v-10.8c0-0.2,0.2-0.4,0.4-0.4h2.3
			c0.2,0,0.4,0.2,0.4,0.4V162C117.1,162.2,116.9,162.4,116.7,162.4z"/>
		<path class="st0" d="M120.2,161.9v-15.4c0-0.3,0.2-0.5,0.5-0.5h2.2c0.3,0,0.5,0.2,0.5,0.5v8.3c0,0.1,0.2,0.2,0.2,0.1l3-3.7
			c0.1-0.1,0.2-0.3,0.6-0.3h2.4c0.3,0,0.5,0.2,0.5,0.5c0,0.1-0.1,0.2-0.1,0.3l-3.8,4.4c-0.2,0.3-0.2,0.4,0,0.7l3.9,4.9
			c0.1,0.1,0.1,0.2,0.1,0.3c0,0.2-0.2,0.4-0.5,0.4h-2.5c-0.3,0-0.6-0.3-0.7-0.4l-2.9-3.9c-0.1-0.1-0.2-0.1-0.2,0.1v3.8
			c0,0.3-0.2,0.5-0.5,0.5h-2.2C120.4,162.4,120.2,162.1,120.2,161.9z"/>
	</g>
</g>
</svg>
